# xmcd CD database file
#
# Track frame offsets:
#	150
#	64592
#	84345
#	115230
#	130005
#	179280
#	205790
#	228247
#
# Disc length: 3389 seconds
#
# Revision: 0
# Processed by: cddbd v1.5.1PL2 Copyright (c) Steve Scherf et al.
# Submitted via: CDex 1.51
#
DISCID=5e0d3b08
DTITLE=富山県民謡おわら保存会 - 風の盆
DYEAR=1990
DGENRE=Country
TTITLE0=越中おわら＜出演用＞
TTITLE1=越中おわら＜古謡＞
TTITLE2=越中おわら＜字余り＞
TTITLE3=越中おわらについて（ナレーション）
TTITLE4=越中おわら＜豊年踊り＞
TTITLE5=越中おわら＜五文字冠り＞
TTITLE6=越中おわら＜正調＞
TTITLE7=越中おわら＜カラオケ＞
EXTD=YEAR: 1990
EXTT0=
EXTT1=
EXTT2=
EXTT3=
EXTT4=
EXTT5=
EXTT6=
EXTT7=
PLAYORDER=
